<svg xmlns="http://www.w3.org/2000/svg" width="1200" height="630" viewBox="0 0 1200 630" role="img" aria-labelledby="title desc">
  <title id="title">McAmner Journal social preview</title>
  <desc id="desc">A terminal-style preview image for McAmner Journal by Mattias Camner.</desc>
  <rect width="1200" height="630" fill="#f4efe4"/>
  <rect x="56" y="54" width="1088" height="522" fill="#f8f3e9" stroke="#0d438f" stroke-width="4"/>
  <rect x="56" y="54" width="1088" height="56" fill="#0d438f"/>
  <text x="88" y="91" fill="#f8f3e9" font-family="Menlo, Consolas, monospace" font-size="24" font-weight="700">McAmner Journal</text>
  <text x="1034" y="91" fill="#f8f3e9" font-family="Menlo, Consolas, monospace" font-size="20">stable</text>
  <text x="88" y="202" fill="#0d438f" font-family="Menlo, Consolas, monospace" font-size="76" font-weight="700">McAmner</text>
  <text x="88" y="286" fill="#0d438f" font-family="Menlo, Consolas, monospace" font-size="76" font-weight="700">Journal</text>
  <text x="92" y="354" fill="#1f1f1f" font-family="Menlo, Consolas, monospace" font-size="28">Films · books · music · objects</text>
  <text x="92" y="400" fill="#1f1f1f" font-family="Menlo, Consolas, monospace" font-size="26">Systems and culture. Things worth returning to.</text>
  <text x="92" y="492" fill="#0d438f" font-family="Menlo, Consolas, monospace" font-size="24">&gt; Mattias Camner · Stockholm</text>
  <rect x="882" y="188" width="96" height="126" fill="#e57b4f"/>
  <rect x="904" y="224" width="16" height="16" fill="#0d438f"/>
  <rect x="940" y="224" width="16" height="16" fill="#0d438f"/>
  <rect x="900" y="314" width="18" height="88" fill="#e57b4f"/>
  <rect x="928" y="314" width="18" height="88" fill="#e57b4f"/>
  <rect x="956" y="314" width="18" height="88" fill="#e57b4f"/>
  <rect x="998" y="240" width="78" height="102" fill="#59a14f"/>
  <rect x="1016" y="270" width="13" height="13" fill="#0d438f"/>
  <rect x="1046" y="270" width="13" height="13" fill="#0d438f"/>
  <rect x="1016" y="342" width="15" height="66" fill="#59a14f"/>
  <rect x="1038" y="342" width="15" height="66" fill="#59a14f"/>
  <rect x="1060" y="342" width="15" height="66" fill="#59a14f"/>
  <rect x="856" y="438" width="252" height="4" fill="#0d438f"/>
</svg>
